<svg width="799.9999999999999" height="399.99999999999994" xmlns="http://www.w3.org/2000/svg">
 <g>
  <title>Layer 1</title>
  <rect stroke="#000" transform="translate(831.329 424.838) scale(1.01098 1.00164) translate(-831.329 -424.838)" id="svg_14" height="426.57342" width="827.97203" y="-1.73553" x="3.35663" stroke-width="0" fill="#969aad"/>
  <rect id="svg_11" height="386.71329" width="786.71329" y="6.65607" x="7.55244" stroke-width="0" stroke="#000" fill="#ffffff"/>
  <rect stroke="#000" id="svg_9" height="352.44755" width="748.25175" y="23.43929" x="27.13286" stroke-width="0" fill="#e1e7ed"/>
  <ellipse opacity="0.39" stroke="#000" fill="#f44949" stroke-width="0" cx="97.46853" cy="89.31469" id="svg_2" rx="59.23776" ry="59.23776"/>
  <text font-weight="normal" font-style="italic" stroke-width="0" transform="matrix(2.6732 0 0 4.51854 -332.314 -888.047)" stroke="#000" xml:space="preserve" text-anchor="start" font-family="'Ibarra Real Nova'" font-size="24" id="svg_1" y="231.15039" x="152.73013" fill="#ffffff">Visit Japan</text>
  <line stroke-dasharray="5,5" id="svg_3" y2="387.51125" x2="16.2" y1="14.34909" x1="16.2" stroke="#000" fill="none"/>
  <line stroke-dasharray="5,5" id="svg_4" y2="387.51125" x2="16.2" y1="14.34909" x1="16.2" stroke="#000" fill="none"/>
  <line stroke-dasharray="5,5" id="svg_5" y2="16" x2="785" y1="385.67705" x1="785" stroke="#000" fill="none"/>
  <line id="svg_7" y2="387.77495" x2="765.05594" y1="387.77495" x1="29.23076" stroke-dasharray="5,5" stroke="#000" fill="none"/>
  <line id="svg_8" y2="12.94978" x2="774.79157" y1="12.94978" x1="29.23076" stroke-dasharray="5,5" stroke="#000" fill="none"/>
  <rect id="svg_12" height="0" width="0.6993" y="423.43929" x="355.80418" stroke-width="0" stroke="#000" fill="#ffffff"/>
  <rect stroke="#000" id="svg_13" height="0" width="1.3986" y="-1.03624" x="0.55943" stroke-width="0" fill="#c4c4c4"/>
 </g>

</svg>